<svg id="Layer_1" data-name="Layer 1" xmlns="http://www.w3.org/2000/svg" viewBox="0 0 332.59 105.8"><defs><style>.cls-1{fill:none;stroke:#e0e0e0;stroke-miterlimit:10;}.cls-2{fill:#828181;}</style></defs><title>2</title><rect class="cls-1" x="0.5" y="0.5" width="331.59" height="104.8"/><path class="cls-2" d="M299.69,390.73c3.36,0,6.73.06,10.09,0a3.42,3.42,0,0,1,3.58,3.29c.07,1.31.05,2.62.06,3.93,0,.93,0,.93,1,.93h5.15a2.15,2.15,0,0,1,1.73.77q3.18,3.6,6.4,7.18a3,3,0,0,1,.82,2.2c0,2,0,4,0,6,0,1.46-.58,2.06-2,2.18a.88.88,0,0,0-.63.42,3.76,3.76,0,0,1-3.62,2.49,3.71,3.71,0,0,1-3.54-2.49.85.85,0,0,0-.63-.42q-8.75,0-17.48,0a.87.87,0,0,0-.6.45,3.8,3.8,0,0,1-3.56,2.47,3.88,3.88,0,0,1-3.6-2.52.81.81,0,0,0-.63-.4c-1.38,0-2.76,0-4.13,0a2,2,0,0,1-2.13-2c0-.16,0-.32,0-.48,0-6.64,0-13.28,0-19.92a5.52,5.52,0,0,1,.41-2.09,3.06,3.06,0,0,1,3.06-1.94C292.82,390.74,296.25,390.73,299.69,390.73Zm0,1.35h-10.3a1.83,1.83,0,0,0-2,1.48,5.45,5.45,0,0,0-.14,1.34q0,6.35,0,12.67v7.12c0,.91.18,1.08,1.07,1.08,1.22,0,2.44,0,3.65,0a.73.73,0,0,0,.85-.62,3.74,3.74,0,0,1,7.16,0,.76.76,0,0,0,.9.64q5.19,0,10.37,0c.66,0,.83-.19.83-.84,0-6.68,0-13.37,0-20.06a7.31,7.31,0,0,0,0-.81,2,2,0,0,0-2.25-2ZM321,401.64l.13-.31c-.55-.37-1.07-1-1.65-1.06-1.84-.14-3.7,0-5.55-.06-.41,0-.55.13-.55.55q0,7.25,0,14.49c0,.37.11.53.5.53,1.38,0,2.76,0,4.13,0a.73.73,0,0,0,.53-.42,3.83,3.83,0,0,1,3.64-2.83,3.75,3.75,0,0,1,3.68,2.84.51.51,0,0,0,.63.43c.53,0,.59-.37.59-.79,0-1.88,0-3.75,0-5.62,0-.58-.18-.72-.73-.71-2.71,0-5.42,0-8.13,0a1.68,1.68,0,0,1-1.89-1.87c0-1.06,0-2.13,0-3.19a1.75,1.75,0,0,1,2-1.95Zm5,5.66c0-.15,0-.2,0-.23-1.13-1.28-2.26-2.57-3.41-3.84a.79.79,0,0,0-.53-.22c-1.26,0-2.52,0-3.79,0-.4,0-.58.19-.58.57,0,1.06,0,2.12,0,3.18,0,.19.31.53.49.53C320.83,407.31,323.42,407.3,326.05,407.3Zm-1.39,9a2.42,2.42,0,0,0-2.39-2.42,2.48,2.48,0,0,0-2.47,2.44,2.43,2.43,0,0,0,2.48,2.41A2.39,2.39,0,0,0,324.66,416.28Zm-28.26,2.43a2.41,2.41,0,0,0,2.43-2.45,2.43,2.43,0,0,0-4.86.06A2.42,2.42,0,0,0,296.4,418.71Z" transform="translate(-131.71 -367.6)"/><path class="cls-2" d="M275,401.42h-6.3a1.3,1.3,0,0,1-.66-.06c-.22-.13-.5-.39-.5-.6s.26-.47.47-.64a1,1,0,0,1,.53-.07h12.94c.11,0,.26,0,.33,0,.25.21.61.43.66.7s-.28.63-.69.64H275Z" transform="translate(-131.71 -367.6)"/><path class="cls-2" d="M276.27,404.75h5.41c.44,0,.78.16.8.64s-.35.71-.81.71h-10.9c-.45,0-.83-.16-.83-.68s.4-.67.84-.67Z" transform="translate(-131.71 -367.6)"/><path class="cls-2" d="M277.56,410.79c-1.31,0-2.62,0-3.92,0-.49,0-1-.06-1-.67s.46-.69.95-.69h7.92c.5,0,1,.1.94.7s-.45.66-.92.66Z" transform="translate(-131.71 -367.6)"/><path class="cls-2" d="M306.54,401.34a8.13,8.13,0,0,1-2.9,5.29,42.2,42.2,0,0,1-3.57,2.79.89.89,0,0,1-.78.11c-2.39-1.56-4.7-3.23-6-5.94a6.36,6.36,0,0,1-.67-3.54,3.81,3.81,0,0,1,5.48-3.09,3.3,3.3,0,0,0,3,0C303.91,395.74,306.62,397.7,306.54,401.34Zm-7-2a12.8,12.8,0,0,0-2.07-1.22A2.56,2.56,0,0,0,294,401a7.17,7.17,0,0,0,.51,1.88c1,2.29,2.9,3.76,4.9,5.11.12.08.44,0,.58-.12,1-.84,2.1-1.64,3-2.57a6.82,6.82,0,0,0,2.19-4.39,2.55,2.55,0,0,0-3.49-2.78A12.52,12.52,0,0,0,299.58,399.36Z" transform="translate(-131.71 -367.6)"/><path class="cls-2" d="M179.29,438.14v9.43h-.74v-9.43Zm-.35,0h4.13v.7h-4.13Zm0,4h4v.7h-4Z" transform="translate(-131.71 -367.6)"/><path class="cls-2" d="M186.74,443.94l-.09.16-1.41,3.47h-.83l4.16-9.79,4.16,9.79h-.84l-1.4-3.41-.07-.18-1.85-4.49Zm-.33-.24h4.35l.24.7h-4.83Z" transform="translate(-131.71 -367.6)"/><path class="cls-2" d="M196,445.92a2.54,2.54,0,0,0,.82.78,2.23,2.23,0,0,0,1.15.29,2,2,0,0,0,1.44-.51,1.72,1.72,0,0,0,.52-1.28,1.87,1.87,0,0,0-.31-1.11,2.52,2.52,0,0,0-.8-.68,9.5,9.5,0,0,0-1-.46c-.27-.1-.55-.22-.85-.36a4.25,4.25,0,0,1-.81-.51,2.38,2.38,0,0,1-.61-.73,2.13,2.13,0,0,1-.24-1,2.23,2.23,0,0,1,.32-1.19,2.17,2.17,0,0,1,.91-.81,2.89,2.89,0,0,1,1.3-.29,2.74,2.74,0,0,1,1.3.28,2.85,2.85,0,0,1,.91.72,3.21,3.21,0,0,1,.55.88l-.64.37a2.86,2.86,0,0,0-.43-.72,2.32,2.32,0,0,0-.69-.58,2.05,2.05,0,0,0-1-.24,1.7,1.7,0,0,0-1.26.43,1.38,1.38,0,0,0-.45,1,1.62,1.62,0,0,0,.26.91,2.37,2.37,0,0,0,.77.68,7.55,7.55,0,0,0,1.26.57q.39.15.81.36a3.74,3.74,0,0,1,.76.54,2.37,2.37,0,0,1,.77,1.84,2.4,2.4,0,0,1-.78,1.87,2.75,2.75,0,0,1-.87.53,3.14,3.14,0,0,1-1.08.18,3,3,0,0,1-1.44-.34,3.1,3.1,0,0,1-1-.9,4.8,4.8,0,0,1-.64-1.23l.6-.37A5.69,5.69,0,0,0,196,445.92Z" transform="translate(-131.71 -367.6)"/><path class="cls-2" d="M202.79,438.14h5.69v.7H206v8.73h-.74v-8.73h-2.47Z" transform="translate(-131.71 -367.6)"/><path class="cls-2" d="M211.89,438.14v9.43h-.74v-9.43Zm-.35,0h4.67v.7h-4.67Zm0,3.91h4.4v.7h-4.4Zm0,4.82h4.67v.7h-4.67Z" transform="translate(-131.71 -367.6)"/><path class="cls-2" d="M220.31,445.92a2.54,2.54,0,0,0,.82.78,2.21,2.21,0,0,0,1.15.29,2,2,0,0,0,1.44-.51,1.72,1.72,0,0,0,.52-1.28,1.87,1.87,0,0,0-.31-1.11,2.52,2.52,0,0,0-.8-.68,9.5,9.5,0,0,0-1-.46c-.27-.1-.55-.22-.85-.36a4.25,4.25,0,0,1-.81-.51,2.38,2.38,0,0,1-.61-.73,2.13,2.13,0,0,1-.24-1,2.23,2.23,0,0,1,.32-1.19,2.17,2.17,0,0,1,.91-.81,2.89,2.89,0,0,1,1.3-.29,2.77,2.77,0,0,1,1.3.28,2.85,2.85,0,0,1,.91.72,3.21,3.21,0,0,1,.55.88l-.64.37a2.86,2.86,0,0,0-.43-.72,2.32,2.32,0,0,0-.69-.58,2.05,2.05,0,0,0-1-.24,1.7,1.7,0,0,0-1.26.43,1.38,1.38,0,0,0-.45,1,1.62,1.62,0,0,0,.26.91,2.37,2.37,0,0,0,.77.68,7.55,7.55,0,0,0,1.26.57q.39.15.81.36a3.74,3.74,0,0,1,.76.54,2.72,2.72,0,0,1,.56.77,2.55,2.55,0,0,1,.21,1.07,2.61,2.61,0,0,1-.21,1.06,2.43,2.43,0,0,1-.57.81,2.75,2.75,0,0,1-.87.53,3.14,3.14,0,0,1-1.08.18,3,3,0,0,1-1.44-.34,3.1,3.1,0,0,1-1-.9,4.51,4.51,0,0,1-.64-1.23l.6-.37A5.69,5.69,0,0,0,220.31,445.92Z" transform="translate(-131.71 -367.6)"/><path class="cls-2" d="M227.14,438.14h5.7v.7h-2.48v8.73h-.74v-8.73h-2.48Z" transform="translate(-131.71 -367.6)"/><path class="cls-2" d="M241.52,445.92a2.62,2.62,0,0,0,.81.78,2.27,2.27,0,0,0,1.16.29,2,2,0,0,0,1.44-.51,1.71,1.71,0,0,0,.51-1.28,1.8,1.8,0,0,0-.31-1.11,2.32,2.32,0,0,0-.8-.68,8.71,8.71,0,0,0-1-.46q-.41-.15-.84-.36a4.25,4.25,0,0,1-.81-.51,2.56,2.56,0,0,1-.62-.73,2.41,2.41,0,0,1,.09-2.23,2.21,2.21,0,0,1,.9-.81,2.93,2.93,0,0,1,1.31-.29,2.77,2.77,0,0,1,1.3.28,3,3,0,0,1,.91.72,3.47,3.47,0,0,1,.55.88l-.65.37a3.14,3.14,0,0,0-.42-.72,2.45,2.45,0,0,0-.69-.58,2.08,2.08,0,0,0-1-.24,1.75,1.75,0,0,0-1.27.43,1.4,1.4,0,0,0-.44,1,1.61,1.61,0,0,0,.25.91,2.6,2.6,0,0,0,.77.68,7.68,7.68,0,0,0,1.27.57q.39.15.81.36a4,4,0,0,1,.76.54,2.72,2.72,0,0,1,.56.77,2.55,2.55,0,0,1,.21,1.07,2.61,2.61,0,0,1-.21,1.06,2.46,2.46,0,0,1-.58.81,2.59,2.59,0,0,1-.86.53,3.22,3.22,0,0,1-1.08.18,3,3,0,0,1-2.48-1.24,4.83,4.83,0,0,1-.65-1.23l.61-.37A5.16,5.16,0,0,0,241.52,445.92Z" transform="translate(-131.71 -367.6)"/><path class="cls-2" d="M250,438.14v9.43h-.75v-9.43Zm-.35,3.95H256v.7h-6.35Zm6.61-3.95v9.43h-.76v-9.43Z" transform="translate(-131.71 -367.6)"/><path class="cls-2" d="M260.62,438.14v9.43h-.74v-9.43Z" transform="translate(-131.71 -367.6)"/><path class="cls-2" d="M264.94,438.14v9.43h-.74v-9.43Zm-.32,0h1.79a3.5,3.5,0,0,1,1.58.34,2.82,2.82,0,0,1,1.1,3.94,2.72,2.72,0,0,1-1.1,1,3.78,3.78,0,0,1-1.58.32h-1.79V443h1.79a2.52,2.52,0,0,0,1.68-.53,2.19,2.19,0,0,0,0-3.11,2.58,2.58,0,0,0-1.68-.53h-1.79Z" transform="translate(-131.71 -367.6)"/><path class="cls-2" d="M273.3,438.14v9.43h-.74v-9.43Zm-.32,0h1.79a3.5,3.5,0,0,1,1.58.34,2.62,2.62,0,0,1,1.1.95,2.93,2.93,0,0,1,0,3,2.66,2.66,0,0,1-1.1,1,3.78,3.78,0,0,1-1.58.32H273V443h1.79a2.57,2.57,0,0,0,1.69-.53,2.21,2.21,0,0,0,0-3.11,2.63,2.63,0,0,0-1.69-.53H273Z" transform="translate(-131.71 -367.6)"/><path class="cls-2" d="M281.64,438.14v9.43h-.74v-9.43Z" transform="translate(-131.71 -367.6)"/><path class="cls-2" d="M293.12,438.14v9.79L286,439.7v7.87h-.74v-9.79l7.16,8.25v-7.89Z" transform="translate(-131.71 -367.6)"/><path class="cls-2" d="M301.14,442.87h4.19a5.56,5.56,0,0,1-.3,1.82,4.61,4.61,0,0,1-.88,1.54,4.12,4.12,0,0,1-1.4,1.07,4.24,4.24,0,0,1-1.86.39,4.74,4.74,0,0,1-1.86-.36,4.49,4.49,0,0,1-1.49-1,4.61,4.61,0,0,1-1-1.54,5.7,5.7,0,0,1,0-3.88,4.56,4.56,0,0,1,1-1.53,4.35,4.35,0,0,1,1.49-1,4.74,4.74,0,0,1,1.86-.36,5,5,0,0,1,1.6.24,4.21,4.21,0,0,1,1.29.69,4.83,4.83,0,0,1,1,1.09l-.54.47a3.74,3.74,0,0,0-1.32-1.27,4,4,0,0,0-2-.48,3.84,3.84,0,0,0-2,.52,3.75,3.75,0,0,0-1.4,1.45,4.58,4.58,0,0,0,0,4.24,3.75,3.75,0,0,0,1.4,1.45,3.8,3.8,0,0,0,2,.53,3.61,3.61,0,0,0,1.43-.27,3.49,3.49,0,0,0,1.1-.74,3.89,3.89,0,0,0,1.1-2.37h-3.38Z" transform="translate(-131.71 -367.6)"/><path class="cls-2" d="M314.62,445a3.8,3.8,0,0,0,1.37,1.44,3.62,3.62,0,0,0,1.92.52,4.71,4.71,0,0,0,1.23-.15,3.11,3.11,0,0,0,1-.44,4.16,4.16,0,0,0,.81-.7v1a4.06,4.06,0,0,1-1.3.78,4.82,4.82,0,0,1-1.74.27,4.58,4.58,0,0,1-1.82-.36,4.37,4.37,0,0,1-1.46-1,4.69,4.69,0,0,1-1-1.54,5.55,5.55,0,0,1,0-3.88,4.65,4.65,0,0,1,1-1.53,4.23,4.23,0,0,1,1.46-1,4.58,4.58,0,0,1,1.82-.36,5.06,5.06,0,0,1,1.74.26,4.28,4.28,0,0,1,1.3.79v1a3.69,3.69,0,0,0-1.82-1.13,4.63,4.63,0,0,0-1.22-.15,3.69,3.69,0,0,0-3.29,2,4.58,4.58,0,0,0,0,4.24Z" transform="translate(-131.71 -367.6)"/><path class="cls-2" d="M324.23,440.93a4.61,4.61,0,0,1,1-1.53,4.5,4.5,0,0,1,1.49-1,5,5,0,0,1,3.73,0,4.4,4.4,0,0,1,1.49,1,4.61,4.61,0,0,1,1,1.53,5.44,5.44,0,0,1,0,3.84,4.66,4.66,0,0,1-1,1.54,4.52,4.52,0,0,1-1.49,1,4.89,4.89,0,0,1-3.73,0,4.47,4.47,0,0,1-2.47-2.55,5.44,5.44,0,0,1,0-3.84Zm.94,4a3.66,3.66,0,0,0,1.38,1.46,4,4,0,0,0,4,0A3.66,3.66,0,0,0,332,445a4.4,4.4,0,0,0,.5-2.1,4.35,4.35,0,0,0-.5-2.1,3.73,3.73,0,0,0-1.38-1.46,4.1,4.1,0,0,0-4,0,3.73,3.73,0,0,0-1.38,1.46,4.24,4.24,0,0,0-.51,2.1A4.29,4.29,0,0,0,325.17,445Z" transform="translate(-131.71 -367.6)"/><path class="cls-2" d="M337,438.14v6.38a2.61,2.61,0,0,0,.59,1.81,2.44,2.44,0,0,0,3.36,0,2.62,2.62,0,0,0,.6-1.81v-6.38h.74v6.38a4.06,4.06,0,0,1-.2,1.29,2.87,2.87,0,0,1-.6,1,2.7,2.7,0,0,1-.95.66,3.62,3.62,0,0,1-2.54,0,2.79,2.79,0,0,1-.95-.66,2.71,2.71,0,0,1-.59-1,3.79,3.79,0,0,1-.21-1.29v-6.38Z" transform="translate(-131.71 -367.6)"/><path class="cls-2" d="M353.73,438.14v9.79l-7.16-8.23v7.87h-.74v-9.79L353,446v-7.89Z" transform="translate(-131.71 -367.6)"/><path class="cls-2" d="M356.4,438.14h5.7v.7h-2.48v8.73h-.74v-8.73H356.4Z" transform="translate(-131.71 -367.6)"/><path class="cls-2" d="M365.5,438.14v9.43h-.74v-9.43Zm-.35,0h1.77a4,4,0,0,1,1.63.32,2.76,2.76,0,0,1,1.14.93,2.63,2.63,0,0,1-1.14,3.9,4,4,0,0,1-1.63.32h-1.77V443h1.77a3.2,3.2,0,0,0,1.27-.24,2,2,0,0,0,.87-.7,2.06,2.06,0,0,0,.31-1.14,2,2,0,0,0-.32-1.13,2,2,0,0,0-.87-.7,3.15,3.15,0,0,0-1.26-.24h-1.77Zm2,4.93,3.22,4.5h-.91l-3.13-4.5Z" transform="translate(-131.71 -367.6)"/><path class="cls-2" d="M379.16,438.14,376,443.69v3.88h-.74V443.7l-3.11-5.56H373l2.63,4.87,2.71-4.87Z" transform="translate(-131.71 -367.6)"/><path class="cls-2" d="M393.13,438.14H394l-3.49,9.79-2.89-8.12-2.88,8.12-3.48-9.79H382l2.72,7.8,2.82-8.16,2.87,8.16Z" transform="translate(-131.71 -367.6)"/><path class="cls-2" d="M397.33,438.14v9.43h-.74v-9.43Z" transform="translate(-131.71 -367.6)"/><path class="cls-2" d="M401.66,438.14v9.43h-.74v-9.43Zm-.34,9.43v-.74h2.15a4.3,4.3,0,0,0,1.6-.29,3.45,3.45,0,0,0,2-2.05,4.74,4.74,0,0,0,.28-1.64,4.68,4.68,0,0,0-.28-1.63,3.55,3.55,0,0,0-.79-1.26,3.59,3.59,0,0,0-1.23-.8,4.51,4.51,0,0,0-1.6-.28h-2.15v-.74h2.15a4.85,4.85,0,0,1,2.42.59,4.24,4.24,0,0,1,1.63,1.65,5,5,0,0,1,.59,2.47,5,5,0,0,1-.59,2.47,4.11,4.11,0,0,1-1.63,1.65,4.75,4.75,0,0,1-2.42.6Z" transform="translate(-131.71 -367.6)"/><path class="cls-2" d="M411.92,438.14v9.43h-.74v-9.43Zm-.35,0h4.67v.7h-4.67Zm0,3.91H416v.7h-4.4Zm0,4.82h4.67v.7h-4.67Z" transform="translate(-131.71 -367.6)"/></svg>