<svg id="Layer_1" data-name="Layer 1" xmlns="http://www.w3.org/2000/svg" viewBox="0 0 332.59 105.8"><defs><style>.cls-1{fill:none;stroke:#e0e0e0;stroke-miterlimit:10;}.cls-2{fill:#828181;}</style></defs><title>Online Support 24-7</title><rect class="cls-1" x="0.5" y="0.5" width="331.59" height="104.8"/><path class="cls-2" d="M217.76,440.15a4.69,4.69,0,0,1,1-1.53,4.4,4.4,0,0,1,1.49-1,4.74,4.74,0,0,1,1.86-.36,4.79,4.79,0,0,1,1.87.36,4.36,4.36,0,0,1,1.48,1,4.54,4.54,0,0,1,1,1.53,5.44,5.44,0,0,1,0,3.84,4.68,4.68,0,0,1-1,1.54,4.48,4.48,0,0,1-1.48,1,4.8,4.8,0,0,1-1.87.37,4.75,4.75,0,0,1-1.86-.37,4.52,4.52,0,0,1-1.49-1,4.85,4.85,0,0,1-1-1.54,5.59,5.59,0,0,1,0-3.84Zm.94,4a3.87,3.87,0,0,0,6.8,0,4.77,4.77,0,0,0,0-4.21,3.77,3.77,0,0,0-3.4-2,3.87,3.87,0,0,0-2,.53A3.8,3.8,0,0,0,218.7,440a4.68,4.68,0,0,0,0,4.21Z" transform="translate(-131.71 -367.6)"/><path class="cls-2" d="M237.76,437.36v9.79l-7.16-8.23v7.86h-.74V437l7.16,8.25v-7.89Z" transform="translate(-131.71 -367.6)"/><path class="cls-2" d="M242.11,437.36v8.72H246v.7h-4.63v-9.42Z" transform="translate(-131.71 -367.6)"/><path class="cls-2" d="M249.38,437.36v9.42h-.74v-9.42Z" transform="translate(-131.71 -367.6)"/><path class="cls-2" d="M260.87,437.36v9.79l-7.17-8.23v7.86H253V437l7.17,8.25v-7.89Z" transform="translate(-131.71 -367.6)"/><path class="cls-2" d="M265.22,437.36v9.42h-.74v-9.42Zm-.35,0h4.67v.7h-4.67Zm0,3.9h4.4v.7h-4.4Zm0,4.82h4.67v.7h-4.67Z" transform="translate(-131.71 -367.6)"/><path class="cls-2" d="M279,445.14a2.73,2.73,0,0,0,.81.78,2.24,2.24,0,0,0,1.16.28,1.93,1.93,0,0,0,1.43-.5,1.72,1.72,0,0,0,.52-1.29,1.79,1.79,0,0,0-.31-1.1,2.3,2.3,0,0,0-.8-.68,8.76,8.76,0,0,0-1-.47,7.18,7.18,0,0,1-.84-.35,4.67,4.67,0,0,1-.82-.51,2.57,2.57,0,0,1-.61-.74,2.06,2.06,0,0,1-.23-1,2.13,2.13,0,0,1,1.22-2,3.13,3.13,0,0,1,2.61,0,3.23,3.23,0,0,1,.91.71,3.71,3.71,0,0,1,.55.89l-.65.37a3.14,3.14,0,0,0-.42-.72,2.34,2.34,0,0,0-.7-.58,2,2,0,0,0-1-.24,1.79,1.79,0,0,0-1.27.42,1.44,1.44,0,0,0-.44,1.06,1.56,1.56,0,0,0,.25.9,2.25,2.25,0,0,0,.77.68,6.62,6.62,0,0,0,1.27.58,7.93,7.93,0,0,1,.8.36,2.92,2.92,0,0,1,.76.54,2.43,2.43,0,0,1,.56.77,2.38,2.38,0,0,1,.22,1.07,2.52,2.52,0,0,1-.21,1.05,2.4,2.4,0,0,1-.58.82,2.46,2.46,0,0,1-.87.52,3.12,3.12,0,0,1-1.07.19,3,3,0,0,1-1.44-.34,3.23,3.23,0,0,1-1-.9,4.54,4.54,0,0,1-.65-1.23l.61-.38A5,5,0,0,0,279,445.14Z" transform="translate(-131.71 -367.6)"/><path class="cls-2" d="M287.48,437.36v6.38a2.57,2.57,0,0,0,.59,1.8,2.42,2.42,0,0,0,3.36,0,2.58,2.58,0,0,0,.6-1.8v-6.38h.74v6.38a4.06,4.06,0,0,1-.2,1.29,2.87,2.87,0,0,1-.6,1,2.56,2.56,0,0,1-1,.65,3.16,3.16,0,0,1-1.27.24,3.2,3.2,0,0,1-1.27-.24,2.64,2.64,0,0,1-1-.65,2.71,2.71,0,0,1-.59-1,3.8,3.8,0,0,1-.2-1.29v-6.38Z" transform="translate(-131.71 -367.6)"/><path class="cls-2" d="M297.05,437.36v9.42h-.74v-9.42Zm-.32,0h1.79a3.5,3.5,0,0,1,1.58.34,2.82,2.82,0,0,1,1.1,3.94,2.63,2.63,0,0,1-1.1,1,3.63,3.63,0,0,1-1.58.33h-1.79v-.7h1.79a2.53,2.53,0,0,0,1.68-.54,2.17,2.17,0,0,0,0-3.1,2.58,2.58,0,0,0-1.68-.53h-1.79Z" transform="translate(-131.71 -367.6)"/><path class="cls-2" d="M305.41,437.36v9.42h-.74v-9.42Zm-.32,0h1.79a3.5,3.5,0,0,1,1.58.34,2.82,2.82,0,0,1,1.1,3.94,2.63,2.63,0,0,1-1.1,1,3.63,3.63,0,0,1-1.58.33h-1.79v-.7h1.79a2.53,2.53,0,0,0,1.68-.54,2.17,2.17,0,0,0,0-3.1,2.58,2.58,0,0,0-1.68-.53h-1.79Z" transform="translate(-131.71 -367.6)"/><path class="cls-2" d="M312.84,440.15a4.69,4.69,0,0,1,1-1.53,4.4,4.4,0,0,1,1.49-1,4.74,4.74,0,0,1,1.86-.36,4.79,4.79,0,0,1,1.87.36,4.36,4.36,0,0,1,1.48,1,4.54,4.54,0,0,1,1,1.53,5.44,5.44,0,0,1,0,3.84,4.68,4.68,0,0,1-1,1.54,4.48,4.48,0,0,1-1.48,1,4.8,4.8,0,0,1-1.87.37,4.75,4.75,0,0,1-1.86-.37,4.52,4.52,0,0,1-1.49-1,4.85,4.85,0,0,1-1-1.54,5.59,5.59,0,0,1,0-3.84Zm.94,4a4,4,0,0,0,5.41,1.46,3.66,3.66,0,0,0,1.38-1.46,4.68,4.68,0,0,0,0-4.21,3.7,3.7,0,0,0-1.38-1.45,4.08,4.08,0,0,0-4,0,3.8,3.8,0,0,0-1.39,1.45,4.68,4.68,0,0,0,0,4.21Z" transform="translate(-131.71 -367.6)"/><path class="cls-2" d="M325.68,437.36v9.42h-.74v-9.42Zm-.35,0h1.76a4.07,4.07,0,0,1,1.64.32,2.76,2.76,0,0,1,1.14.93,2.88,2.88,0,0,1,0,3,2.57,2.57,0,0,1-1.14.94,4.07,4.07,0,0,1-1.64.32h-1.76v-.67h1.76a3.16,3.16,0,0,0,1.27-.23,1.85,1.85,0,0,0,.87-.7,2,2,0,0,0,.31-1.14,2,2,0,0,0-.31-1.13,2.08,2.08,0,0,0-.87-.7,3.16,3.16,0,0,0-1.27-.24h-1.76Zm2,4.93,3.22,4.49h-.92l-3.12-4.49Z" transform="translate(-131.71 -367.6)"/><path class="cls-2" d="M332.38,437.36h5.7v.7H335.6v8.72h-.74v-8.72h-2.48Z" transform="translate(-131.71 -367.6)"/><path class="cls-2" d="M349.7,442.14a8.48,8.48,0,0,0,.56-.69,2.79,2.79,0,0,0,.39-.72,2.45,2.45,0,0,0,.14-.83,2.19,2.19,0,0,0-.12-.7,2,2,0,0,0-.38-.64,1.93,1.93,0,0,0-.64-.47,2.11,2.11,0,0,0-2.86,1.09,3.41,3.41,0,0,0-.27,1.41h-.74a4.11,4.11,0,0,1,.36-1.77,2.83,2.83,0,0,1,1-1.19,2.91,2.91,0,0,1,1.58-.42,3,3,0,0,1,1.28.26A2.67,2.67,0,0,1,351.4,439a2.67,2.67,0,0,1,.16.9,3,3,0,0,1-.37,1.44,5.7,5.7,0,0,1-.91,1.22l-3.44,3.54h4.89v.7H345.3Z" transform="translate(-131.71 -367.6)"/><path class="cls-2" d="M359.21,437.36h.28v9.42h-.74v-7.71l-3.5,5.17H361v.66h-7Z" transform="translate(-131.71 -367.6)"/><path class="cls-2" d="M369.27,437.36l-5.61,11.44H363l5.6-11.44Z" transform="translate(-131.71 -367.6)"/><path class="cls-2" d="M371.25,437.36h6.49l-4.7,9.42h-.78l4.36-8.72h-5.37Z" transform="translate(-131.71 -367.6)"/><path class="cls-2" d="M314.05,405.68a4.28,4.28,0,0,0-2.46-3.67s.13-.88-.45-.91h-.46a12.94,12.94,0,0,0-3.84-7.54l.33-.29s-8.54-8.48-18.37,0l.29.33a12.56,12.56,0,0,0-3.82,7.53s-1-.34-.82.82a4.49,4.49,0,0,0,0,8.05s-.2.92.6.91l1.08,0s.09.53.95.5,1.09-.29,1.12-.5,0-9.62,0-9.62a.69.69,0,0,0-.88-.65s0-2.53,3.07-5.82l.27.34s6.72-6.75,14.67-.07l.26-.22a11.59,11.59,0,0,1,3.2,5.72s-.93-.11-.93.65v9.63a.72.72,0,0,0,.75.55,10.06,10.06,0,0,1-7.72,5.78,1.78,1.78,0,1,0,0,.56,10.6,10.6,0,0,0,8.22-6.36.78.78,0,0,0,.85-.51h1s.73,0,.62-.87A4.54,4.54,0,0,0,314.05,405.68Z" transform="translate(-131.71 -367.6)"/><path class="cls-2" d="M299.27,411.93a2.4,2.4,0,0,1-.42-1.66,5.18,5.18,0,0,0,5.44,2.36s.26-.06,0-.27a2.55,2.55,0,0,1-1.39-2s5.08-3.82.49-8.43c-2.66-2.4-8.76-3.68-12.22,1.7C289.78,406.11,291.1,412.59,299.27,411.93Zm1.94-7.13a1,1,0,1,1-1,1A1,1,0,0,1,301.21,404.8Zm-6.78,2a1,1,0,1,1,1-1A1,1,0,0,1,294.43,406.82Zm2.38-1a1,1,0,1,1,1,1A1,1,0,0,1,296.81,405.81Z" transform="translate(-131.71 -367.6)"/></svg>