<svg id="Layer_1" data-name="Layer 1" xmlns="http://www.w3.org/2000/svg" viewBox="0 0 332.59 105.8"><defs><style>.cls-1{fill:none;stroke:#e0e0e0;stroke-miterlimit:10;}.cls-2{fill:#828181;}</style></defs><title>Easy Return Policy</title><rect class="cls-1" x="0.5" y="0.5" width="331.59" height="104.8"/><path class="cls-2" d="M224.57,437.38v9.42h-.74v-9.42Zm-.35,0h4.67v.7h-4.67Zm0,3.9h4.4v.7h-4.4Zm0,4.82h4.67v.7h-4.67Z" transform="translate(-131.71 -367.6)"/><path class="cls-2" d="M233.68,443.18l-.08.16-1.41,3.46h-.84l4.16-9.79,4.16,9.79h-.83l-1.4-3.41-.07-.17-1.86-4.5Zm-.32-.24h4.35l.24.7h-4.83Z" transform="translate(-131.71 -367.6)"/><path class="cls-2" d="M242.9,445.16a2.58,2.58,0,0,0,.81.77,2.17,2.17,0,0,0,1.16.29,2,2,0,0,0,1.44-.5,1.75,1.75,0,0,0,.51-1.29,1.77,1.77,0,0,0-.31-1.1,2.22,2.22,0,0,0-.8-.68,8.07,8.07,0,0,0-1-.47c-.27-.1-.55-.21-.84-.35a3.85,3.85,0,0,1-.81-.52,2.43,2.43,0,0,1-.62-.73,2.22,2.22,0,0,1-.23-1,2.25,2.25,0,0,1,.32-1.19,2.35,2.35,0,0,1,.9-.81,3,3,0,0,1,1.31-.29,2.77,2.77,0,0,1,1.3.29,2.94,2.94,0,0,1,.91.71,3.52,3.52,0,0,1,.55.89l-.65.36a2.76,2.76,0,0,0-.42-.71,2.48,2.48,0,0,0-.69-.59,2.19,2.19,0,0,0-1-.23,1.79,1.79,0,0,0-1.27.42,1.43,1.43,0,0,0-.44,1.06,1.56,1.56,0,0,0,.26.9,2.32,2.32,0,0,0,.76.68,7.68,7.68,0,0,0,1.27.57,7.11,7.11,0,0,1,.81.37,3.09,3.09,0,0,1,.76.54,2.59,2.59,0,0,1,.56.77,2.78,2.78,0,0,1,0,2.12,2.46,2.46,0,0,1-1.44,1.34,3.22,3.22,0,0,1-1.08.18,3,3,0,0,1-1.44-.33,3.14,3.14,0,0,1-1-.91,4.61,4.61,0,0,1-.65-1.22l.61-.38A5,5,0,0,0,242.9,445.16Z" transform="translate(-131.71 -367.6)"/><path class="cls-2" d="M256.68,437.38l-3.16,5.54v3.88h-.74v-3.86l-3.11-5.56h.83l2.64,4.87,2.71-4.87Z" transform="translate(-131.71 -367.6)"/><path class="cls-2" d="M265.41,437.38v9.42h-.74v-9.42Zm-.35,0h1.76a3.9,3.9,0,0,1,1.64.32,2.52,2.52,0,0,1,1.55,2.41,2.54,2.54,0,0,1-1.55,2.42,4.07,4.07,0,0,1-1.64.31h-1.76v-.66h1.76a3.34,3.34,0,0,0,1.27-.23,2,2,0,0,0,.87-.7,2,2,0,0,0,.31-1.14A1.86,1.86,0,0,0,269,439a2,2,0,0,0-.86-.7,3.16,3.16,0,0,0-1.27-.25h-1.76Zm2,4.92,3.22,4.5h-.92l-3.12-4.5Z" transform="translate(-131.71 -367.6)"/><path class="cls-2" d="M273.8,437.38v9.42h-.75v-9.42Zm-.35,0h4.67v.7h-4.67Zm0,3.9h4.4v.7h-4.4Zm0,4.82h4.67v.7h-4.67Z" transform="translate(-131.71 -367.6)"/><path class="cls-2" d="M280.65,437.38h5.69v.7h-2.47v8.72h-.74v-8.72h-2.48Z" transform="translate(-131.71 -367.6)"/><path class="cls-2" d="M289.68,437.38v6.38a2.61,2.61,0,0,0,.6,1.8,2.42,2.42,0,0,0,3.36,0,2.61,2.61,0,0,0,.6-1.8v-6.38H295v6.38a3.74,3.74,0,0,1-.21,1.28,2.75,2.75,0,0,1-.59,1,2.68,2.68,0,0,1-.95.65,3.48,3.48,0,0,1-2.54,0,2.65,2.65,0,0,1-1.54-1.66,3.74,3.74,0,0,1-.21-1.28v-6.38Z" transform="translate(-131.71 -367.6)"/><path class="cls-2" d="M299.26,437.38v9.42h-.74v-9.42Zm-.35,0h1.76a3.9,3.9,0,0,1,1.64.32,2.48,2.48,0,0,1,1.55,2.41,2.5,2.5,0,0,1-1.55,2.42,4.07,4.07,0,0,1-1.64.31h-1.76v-.66h1.76a3.34,3.34,0,0,0,1.27-.23,1.85,1.85,0,0,0,.87-.7,2,2,0,0,0,.31-1.14,1.93,1.93,0,0,0-.31-1.13,2,2,0,0,0-.87-.7,3.16,3.16,0,0,0-1.27-.25h-1.76Zm2,4.92,3.22,4.5h-.92l-3.12-4.5Z" transform="translate(-131.71 -367.6)"/><path class="cls-2" d="M314.81,437.38v9.78l-7.16-8.22v7.86h-.74V437l7.16,8.26v-7.89Z" transform="translate(-131.71 -367.6)"/><path class="cls-2" d="M324.55,437.38v9.42h-.74v-9.42Zm-.33,0H326a3.68,3.68,0,0,1,1.59.33,2.75,2.75,0,0,1,1.09,1,2.66,2.66,0,0,1,.41,1.49,2.72,2.72,0,0,1-.41,1.5,2.6,2.6,0,0,1-1.09,1A3.68,3.68,0,0,1,326,443h-1.79v-.7H326a2.54,2.54,0,0,0,1.69-.54,2.2,2.2,0,0,0,0-3.1,2.53,2.53,0,0,0-1.69-.53h-1.79Z" transform="translate(-131.71 -367.6)"/><path class="cls-2" d="M332,440.17a4.66,4.66,0,0,1,1-1.54,4.52,4.52,0,0,1,1.49-1,4.89,4.89,0,0,1,3.73,0,4.52,4.52,0,0,1,1.49,1,4.66,4.66,0,0,1,1,1.54,5.44,5.44,0,0,1,0,3.84,4.51,4.51,0,0,1-1,1.53,4.4,4.4,0,0,1-1.49,1,5,5,0,0,1-3.73,0,4.4,4.4,0,0,1-1.49-1,4.51,4.51,0,0,1-1-1.53,5.44,5.44,0,0,1,0-3.84Zm.94,4a3.66,3.66,0,0,0,1.38,1.46,4.1,4.1,0,0,0,4,0,3.66,3.66,0,0,0,1.38-1.46,4.68,4.68,0,0,0,0-4.21,3.7,3.7,0,0,0-1.38-1.45,4,4,0,0,0-4,0,3.7,3.7,0,0,0-1.38,1.45,4.6,4.6,0,0,0,0,4.21Z" transform="translate(-131.71 -367.6)"/><path class="cls-2" d="M344.81,437.38v8.72h3.89v.7h-4.63v-9.42Z" transform="translate(-131.71 -367.6)"/><path class="cls-2" d="M352.08,437.38v9.42h-.74v-9.42Z" transform="translate(-131.71 -367.6)"/><path class="cls-2" d="M356.43,444.2a3.82,3.82,0,0,0,1.38,1.44,3.6,3.6,0,0,0,1.92.53A4.71,4.71,0,0,0,361,446a3.62,3.62,0,0,0,1-.44,3.83,3.83,0,0,0,.8-.7v1a3.94,3.94,0,0,1-1.29.79,5.15,5.15,0,0,1-1.74.26,4.76,4.76,0,0,1-1.82-.35,4.39,4.39,0,0,1-1.46-1,4.49,4.49,0,0,1-1-1.53,5.55,5.55,0,0,1,0-3.88,4.63,4.63,0,0,1,1-1.54,4.37,4.37,0,0,1,1.46-1,4.58,4.58,0,0,1,1.82-.36,4.89,4.89,0,0,1,1.74.27,3.91,3.91,0,0,1,1.29.78v1a3.51,3.51,0,0,0-1.82-1.13,4.56,4.56,0,0,0-1.21-.15,3.59,3.59,0,0,0-1.92.52,3.72,3.72,0,0,0-1.38,1.43,4.3,4.3,0,0,0-.51,2.13A4.25,4.25,0,0,0,356.43,444.2Z" transform="translate(-131.71 -367.6)"/><path class="cls-2" d="M371.84,437.38l-3.17,5.54v3.88h-.74v-3.86l-3.11-5.56h.84l2.64,4.87,2.7-4.87Z" transform="translate(-131.71 -367.6)"/><path class="cls-2" d="M300.13,398.65c0,.82.06,1.6.09,2.39,0,.38,0,.75,0,1.13a.53.53,0,0,1-.86.49c-.33-.18-.64-.4-1-.59l-7.72-4.64a3.71,3.71,0,0,1-.41-.28c-.34-.28-.35-.57,0-.85s.91-.74,1.37-1.1l6.95-5.45a2.53,2.53,0,0,1,.32-.21.52.52,0,0,1,.77.46c0,.77.07,1.55.11,2.33,0,.4.05.81.07,1.17h1.59c1.14,0,2.3-.11,3.43,0a10.75,10.75,0,0,1,6,2.43,10,10,0,0,1,3.58,5.92,9.63,9.63,0,0,1,.22,2.72,11.06,11.06,0,0,1-2.32,6.14,10.89,10.89,0,0,1-6.17,3.94,5.84,5.84,0,0,1-3,0l-.28-.1c-.33-.15-.37-.37-.07-.57a13,13,0,0,1,1.47-.8c.81-.38,1.66-.67,2.47-1a7.15,7.15,0,0,0,2.56-11,6.63,6.63,0,0,0-5.25-2.57c-1.21,0-2.43.07-3.65.12A1.86,1.86,0,0,0,300.13,398.65Z" transform="translate(-131.71 -367.6)"/><path class="cls-2" d="M290.51,419.28V419q0-4.35,0-8.68a.56.56,0,0,1,.33-.56q3.74-2.13,7.45-4.28c.09-.06.19-.1.33-.18,0,.13,0,.21,0,.3,0,2.88,0,5.76,0,8.64a.6.6,0,0,1-.35.61l-7.51,4.33Zm1.66-6.8.12,0,3.66-2.2a.23.23,0,0,0,.12-.16c0-.23,0-.45,0-.71-1.29.78-2.53,1.52-3.77,2.28a.34.34,0,0,0-.12.22A6,6,0,0,0,292.17,412.48Zm3.58-1.36-2.38,1.44a.23.23,0,0,0-.1.17c0,.21,0,.43,0,.69l2.39-1.45a.27.27,0,0,0,.1-.17C295.76,411.59,295.75,411.38,295.75,411.12Zm-1.7,3.27c.05,0,.08,0,.09,0l1.41-.84a.23.23,0,0,0,.08-.16c0-.21,0-.42,0-.69l-1.48.89a.22.22,0,0,0-.1.15C294.05,414,294.05,414.18,294.05,414.39Z" transform="translate(-131.71 -367.6)"/><path class="cls-2" d="M281.31,405.24c.9.52,1.75,1,2.59,1.5a.43.43,0,0,1,.11.31c0,1.05,0,2.11,0,3.16v.28c.32-.11.62-.2.9-.31a.23.23,0,0,1,.3.1c.29.43.59.86.93,1.34v-3.53c.14.06.25.09.34.14.87.5,1.73,1,2.6,1.49a.64.64,0,0,1,.36.64q0,4.17,0,8.34v.56a1.27,1.27,0,0,1-.21-.07l-7.66-4.41a.45.45,0,0,1-.26-.43v-9.11Z" transform="translate(-131.71 -367.6)"/><path class="cls-2" d="M298.09,404.33l-1.83,1.05-6,3.48a.49.49,0,0,1-.52,0l-3-1.76-.13-.12,1-.57c2.31-1.34,4.62-2.66,6.92-4a.36.36,0,0,1,.4,0l3.12,1.8Z" transform="translate(-131.71 -367.6)"/><path class="cls-2" d="M292.66,401.18l-3.88,2.25-4,2.32a.44.44,0,0,1-.37,0c-.8-.45-1.6-.92-2.4-1.39,0,0,0,0-.1-.08l2-1.18,5.8-3.29a.48.48,0,0,1,.57,0c.71.41,1.43.79,2.14,1.18Z" transform="translate(-131.71 -367.6)"/></svg>