<svg id="Layer_1" data-name="Layer 1" xmlns="http://www.w3.org/2000/svg" viewBox="0 0 332.59 105.8"><defs><style>.cls-1{fill:none;stroke:#e0e0e0;stroke-miterlimit:10;}.cls-2{fill:#828181;}</style></defs><title>Premium Qualiy Product</title><rect class="cls-1" x="0.5" y="0.5" width="331.59" height="104.8"/><path class="cls-2" d="M199.92,437.36v9.42h-.74v-9.42Zm-.33,0h1.8a3.5,3.5,0,0,1,1.58.34,2.68,2.68,0,0,1,1.1.95,2.75,2.75,0,0,1,.4,1.5,2.79,2.79,0,0,1-.4,1.49,2.63,2.63,0,0,1-1.1,1,3.63,3.63,0,0,1-1.58.33h-1.8v-.7h1.8a2.53,2.53,0,0,0,1.68-.54,2.17,2.17,0,0,0,0-3.1,2.58,2.58,0,0,0-1.68-.53h-1.8Z" transform="translate(-131.71 -367.6)"/><path class="cls-2" d="M208.28,437.36v9.42h-.74v-9.42Zm-.35,0h1.76a4.07,4.07,0,0,1,1.64.32,2.76,2.76,0,0,1,1.14.93,2.82,2.82,0,0,1,0,3,2.57,2.57,0,0,1-1.14.94,4.07,4.07,0,0,1-1.64.31h-1.76v-.66h1.76a3.25,3.25,0,0,0,1.28-.23,2,2,0,0,0,.87-.7,2.06,2.06,0,0,0,.31-1.14,1.89,1.89,0,0,0-1.19-1.83,3.16,3.16,0,0,0-1.27-.24h-1.76Zm2,4.93,3.22,4.49h-.91l-3.13-4.49Z" transform="translate(-131.71 -367.6)"/><path class="cls-2" d="M216.67,437.36v9.42h-.74v-9.42Zm-.35,0H221v.7h-4.67Zm0,3.9h4.4v.7h-4.4Zm0,4.82H221v.7h-4.67Z" transform="translate(-131.71 -367.6)"/><path class="cls-2" d="M224.72,446.78H224l1.09-9.79,3.77,7.25,3.77-7.25,1.09,9.79H233l-.81-7.46-3.31,6.37-3.31-6.37Z" transform="translate(-131.71 -367.6)"/><path class="cls-2" d="M237.54,437.36v9.42h-.74v-9.42Z" transform="translate(-131.71 -367.6)"/><path class="cls-2" d="M241.8,437.36v6.38a2.59,2.59,0,0,0,.59,1.8,2.42,2.42,0,0,0,3.36,0,2.59,2.59,0,0,0,.6-1.8v-6.38h.74v6.38a4.06,4.06,0,0,1-.2,1.29,2.87,2.87,0,0,1-.6,1,2.56,2.56,0,0,1-.95.65,3.16,3.16,0,0,1-1.27.24,3.2,3.2,0,0,1-1.27-.24,2.64,2.64,0,0,1-1-.65,2.71,2.71,0,0,1-.59-1,3.8,3.8,0,0,1-.2-1.29v-6.38Z" transform="translate(-131.71 -367.6)"/><path class="cls-2" d="M250.88,446.78h-.74l1.09-9.79,3.78,7.25,3.77-7.25,1.09,9.79h-.74l-.81-7.46L255,445.69l-3.32-6.37Z" transform="translate(-131.71 -367.6)"/><path class="cls-2" d="M268.19,440.15a4.51,4.51,0,0,1,1-1.53,4.4,4.4,0,0,1,1.49-1,5,5,0,0,1,3.73,0,4.55,4.55,0,0,1,2.47,2.55,5.44,5.44,0,0,1,0,3.84,4.47,4.47,0,0,1-2.47,2.55,5,5,0,0,1-3.73,0,4.52,4.52,0,0,1-1.49-1,4.66,4.66,0,0,1-1-1.54,5.44,5.44,0,0,1,0-3.84Zm.93,4a3.86,3.86,0,0,0,6.8,0,4.68,4.68,0,0,0,0-4.21,3.88,3.88,0,0,0-6.8,0,4.68,4.68,0,0,0,0,4.21Zm4.32-1.43,4.15,4h-1l-4.14-4Z" transform="translate(-131.71 -367.6)"/><path class="cls-2" d="M280.93,437.36v6.38a2.59,2.59,0,0,0,.59,1.8,2.12,2.12,0,0,0,1.68.68,2.14,2.14,0,0,0,1.69-.68,2.64,2.64,0,0,0,.59-1.8v-6.38h.74v6.38A4.06,4.06,0,0,1,286,445a2.87,2.87,0,0,1-.6,1,2.56,2.56,0,0,1-.95.65,3.16,3.16,0,0,1-1.27.24,3.2,3.2,0,0,1-1.27-.24A2.64,2.64,0,0,1,281,446a2.71,2.71,0,0,1-.59-1,3.8,3.8,0,0,1-.2-1.29v-6.38Z" transform="translate(-131.71 -367.6)"/><path class="cls-2" d="M291.08,443.16l-.08.16-1.42,3.46h-.83l4.16-9.79,4.16,9.79h-.83l-1.4-3.4-.07-.18-1.86-4.5Zm-.32-.24h4.35l.24.7h-4.84Z" transform="translate(-131.71 -367.6)"/><path class="cls-2" d="M300.41,437.36v8.72h3.89v.7h-4.63v-9.42Z" transform="translate(-131.71 -367.6)"/><path class="cls-2" d="M307.68,437.36v9.42h-.74v-9.42Z" transform="translate(-131.71 -367.6)"/><path class="cls-2" d="M310.32,437.36H316v.7h-2.48v8.72h-.74v-8.72h-2.48Z" transform="translate(-131.71 -367.6)"/><path class="cls-2" d="M325.09,437.36l-3.16,5.55v3.87h-.74v-3.86l-3.11-5.56h.83l2.64,4.87,2.71-4.87Z" transform="translate(-131.71 -367.6)"/><path class="cls-2" d="M333.82,437.36v9.42h-.74v-9.42Zm-.33,0h1.8a3.5,3.5,0,0,1,1.58.34,2.68,2.68,0,0,1,1.1.95,2.75,2.75,0,0,1,.4,1.5,2.79,2.79,0,0,1-.4,1.49,2.63,2.63,0,0,1-1.1,1,3.63,3.63,0,0,1-1.58.33h-1.8v-.7h1.8a2.53,2.53,0,0,0,1.68-.54,2.17,2.17,0,0,0,0-3.1,2.58,2.58,0,0,0-1.68-.53h-1.8Z" transform="translate(-131.71 -367.6)"/><path class="cls-2" d="M342.18,437.36v9.42h-.74v-9.42Zm-.35,0h1.76a4.07,4.07,0,0,1,1.64.32,2.76,2.76,0,0,1,1.14.93,2.82,2.82,0,0,1,0,3,2.57,2.57,0,0,1-1.14.94,4.07,4.07,0,0,1-1.64.31h-1.76v-.66h1.76a3.25,3.25,0,0,0,1.28-.23,1.87,1.87,0,0,0,.86-.7,2,2,0,0,0,.31-1.14,1.86,1.86,0,0,0-1.18-1.83,3.16,3.16,0,0,0-1.27-.24h-1.76Zm2,4.93,3.22,4.49h-.91L343,442.29Z" transform="translate(-131.71 -367.6)"/><path class="cls-2" d="M349.64,440.15a4.55,4.55,0,0,1,2.47-2.55,5,5,0,0,1,3.73,0,4.4,4.4,0,0,1,1.49,1,4.51,4.51,0,0,1,1,1.53,5.44,5.44,0,0,1,0,3.84,4.66,4.66,0,0,1-1,1.54,4.52,4.52,0,0,1-1.49,1,5,5,0,0,1-3.73,0,4.47,4.47,0,0,1-2.47-2.55,5.44,5.44,0,0,1,0-3.84Zm.94,4a3.66,3.66,0,0,0,1.38,1.46,4.1,4.1,0,0,0,4,0,3.66,3.66,0,0,0,1.38-1.46,4.68,4.68,0,0,0,0-4.21,3.7,3.7,0,0,0-1.38-1.45,4.1,4.1,0,0,0-4,0,3.7,3.7,0,0,0-1.38,1.45,4.6,4.6,0,0,0,0,4.21Z" transform="translate(-131.71 -367.6)"/><path class="cls-2" d="M362.47,437.36v9.42h-.74v-9.42Zm-.33,9.42V446h2.15a4.34,4.34,0,0,0,1.6-.28,3.45,3.45,0,0,0,1.23-.8,3.65,3.65,0,0,0,.79-1.25,4.74,4.74,0,0,0,.27-1.64,4.64,4.64,0,0,0-.27-1.63,3.7,3.7,0,0,0-.79-1.26,3.59,3.59,0,0,0-1.23-.8,4.34,4.34,0,0,0-1.6-.28h-2.15v-.74h2.15a4.87,4.87,0,0,1,2.42.59,4.31,4.31,0,0,1,1.63,1.65,5.55,5.55,0,0,1,0,4.94,4.17,4.17,0,0,1-1.63,1.65,4.77,4.77,0,0,1-2.42.59Z" transform="translate(-131.71 -367.6)"/><path class="cls-2" d="M372.67,437.36v6.38a2.59,2.59,0,0,0,.59,1.8,2.42,2.42,0,0,0,3.36,0,2.59,2.59,0,0,0,.6-1.8v-6.38H378v6.38a4.06,4.06,0,0,1-.2,1.29,2.87,2.87,0,0,1-.6,1,2.56,2.56,0,0,1-1,.65,3.16,3.16,0,0,1-1.27.24,3.2,3.2,0,0,1-1.27-.24,2.64,2.64,0,0,1-.95-.65,2.71,2.71,0,0,1-.59-1,3.8,3.8,0,0,1-.2-1.29v-6.38Z" transform="translate(-131.71 -367.6)"/><path class="cls-2" d="M382.27,444.19a3.87,3.87,0,0,0,1.37,1.44,3.65,3.65,0,0,0,1.93.52,4.63,4.63,0,0,0,1.22-.15,3.34,3.34,0,0,0,1-.44,3.89,3.89,0,0,0,.81-.7v1a4.25,4.25,0,0,1-1.3.78,4.81,4.81,0,0,1-1.73.26,4.59,4.59,0,0,1-1.83-.35,4.25,4.25,0,0,1-1.46-1,4.65,4.65,0,0,1-1-1.53,5.55,5.55,0,0,1,0-3.88,4.65,4.65,0,0,1,1-1.53,4.39,4.39,0,0,1,1.46-1,5.37,5.37,0,0,1,3.56-.09,4.09,4.09,0,0,1,1.3.79v1a3.8,3.8,0,0,0-.81-.69,3.52,3.52,0,0,0-1-.44,4.61,4.61,0,0,0-1.21-.15,3.65,3.65,0,0,0-1.93.52,3.84,3.84,0,0,0-1.37,1.43,4.68,4.68,0,0,0,0,4.25Z" transform="translate(-131.71 -367.6)"/><path class="cls-2" d="M390.72,437.36h5.7v.7h-2.48v8.72h-.74v-8.72h-2.48Z" transform="translate(-131.71 -367.6)"/><path class="cls-2" d="M309.07,401a1,1,0,0,0-.93-.71c-.46-.07-.93-.1-1.4-.17-1.44-.2-2.88-.41-4.33-.56a1,1,0,0,1-.89-.59c-.82-1.69-1.69-3.36-2.53-5a1.22,1.22,0,0,0-1.09-.82,1.2,1.2,0,0,0-1.07.84c-.82,1.74-1.65,3.47-2.47,5.2a.7.7,0,0,1-.58.44c-2,.31-3.95.64-5.92,1a1,1,0,0,0-.57,1.84c1.45,1.38,2.89,2.78,4.33,4.16a.63.63,0,0,1,.24.61q-.48,2.88-.94,5.76a1.16,1.16,0,0,0,.41,1.29,1.18,1.18,0,0,0,1.33,0c.59-.32,1.19-.63,1.79-.94l.16-.09c1-.58,2.08-1.14,3.11-1.74a.8.8,0,0,1,.88,0l5.32,2.69A1,1,0,0,0,305,414a1,1,0,0,0,.34-1c-.37-1.94-.71-3.88-1.08-5.82a.83.83,0,0,1,.26-.84c1.41-1.39,2.79-2.79,4.2-4.18A1.08,1.08,0,0,0,309.07,401Zm-1.91.87c-1.25,1.26-2.5,2.53-3.78,3.77a1.51,1.51,0,0,0-.45,1.5c.32,1.66.62,3.33.93,5,0,.12.08.27,0,.35s-.23,0-.33-.07l-4.62-2.33a1.84,1.84,0,0,0-.75-.24,1.73,1.73,0,0,0-.73.26l-4.58,2.49c-.14.08-.29.25-.45.15s0-.3,0-.46q.43-2.67.85-5.35a1.1,1.1,0,0,0-.37-1c-1.31-1.24-2.61-2.5-3.91-3.75-.11-.1-.31-.17-.24-.35s.25-.1.37-.12c1.77-.29,3.54-.59,5.31-.86a1.27,1.27,0,0,0,1-.82c.75-1.6,1.52-3.19,2.28-4.78.06-.12.08-.31.24-.31s.18.18.24.3c.79,1.55,1.58,3.1,2.35,4.66a1.44,1.44,0,0,0,1.23.89c1.76.21,3.52.46,5.28.7.12,0,.28,0,.33.11S307.25,401.76,307.16,401.85Z" transform="translate(-131.71 -367.6)"/><path class="cls-2" d="M310.75,396.71a14.29,14.29,0,0,0-2.76-3.34c-.1-.09-.22-.3-.37-.19a2.16,2.16,0,0,0-.7.8c-.12.25.2.36.34.5a13.37,13.37,0,0,1,4.22,11.69,13.07,13.07,0,0,1-3.35,7.34c-.51.57-.6.42,0,1.05.42.41.42.41.83,0a14.86,14.86,0,0,0,1.77-17.81Z" transform="translate(-131.71 -367.6)"/><path class="cls-2" d="M284.53,402.8a13.24,13.24,0,0,1,3.56-7.59c.12-.13.27-.25.27-.44a3.42,3.42,0,0,0,.85-.71.15.15,0,0,0,0-.22c-.21-.25-.43-.49-.65-.74a.11.11,0,0,0-.18,0c-.31.28-.72.46-.84.91h-.06l-.1.06a14.87,14.87,0,0,0-4.27,9.46,13.54,13.54,0,0,0,.38,4.38,14.94,14.94,0,0,0,3.47,6.59c.58.65.46.56,1,0s.4-.39,0-.84A13.33,13.33,0,0,1,284.53,402.8Zm3.46-8.39-.09-.09.09.09Z" transform="translate(-131.71 -367.6)"/><path class="cls-2" d="M300.77,413.2c-.34,0-.45.12-.44.46,0,1.09,0,2.18,0,3.27,0,.84,0,.88-.72.46a2.88,2.88,0,0,0-3,0c-.75.41-.79.49-.78-.52s0-2.12,0-3.18c0-.36-.13-.51-.49-.48a5.48,5.48,0,0,1-.7,0l-.1,0c0,1.72,0,3.43,0,5.14a.82.82,0,0,0,1.24.81c.66-.27,1.32-.54,2-.83a.79.79,0,0,1,.67,0l2,.83a.9.9,0,0,0,.72,0c.46-.18.52-.57.52-1,0-1.4,0-2.79,0-4.18C301.65,413.14,301.82,413.22,300.77,413.2Z" transform="translate(-131.71 -367.6)"/><path class="cls-2" d="M305.73,393.23c.24-.1.33-.33.46-.51.37-.5.37-.51-.14-.83-.78-.49-.6-.48-1.06.28-.08.14-.25.3-.14.45A3.29,3.29,0,0,0,305.73,393.23Z" transform="translate(-131.71 -367.6)"/><path class="cls-2" d="M302.64,391.64l.8.32a.15.15,0,0,0,.21-.07l.42-.89c-.08-.34-.39-.34-.61-.43s-.39-.29-.63-.09a.2.2,0,0,0,0,.08l-.27.81A.2.2,0,0,0,302.64,391.64Z" transform="translate(-131.71 -367.6)"/><path class="cls-2" d="M290.7,393a5,5,0,0,1,.49-.31l.2-.18c-.14-.25-.29-.48-.4-.72s-.33-.34-.6-.16c-.93.62-.85.37-.28,1.24C290.28,393.12,290.44,393.19,290.7,393Z" transform="translate(-131.71 -367.6)"/><path class="cls-2" d="M301,391.15c.51-.09.32-.65.44-1s-.46-.49-1.06-.42-.11.68-.37.88C300,391,300.43,391.24,301,391.15Z" transform="translate(-131.71 -367.6)"/><path class="cls-2" d="M292.68,391.9a2,2,0,0,0,1-.49c0-.26-.35-1-.51-1.05s-1.06.39-1.06.52A2,2,0,0,0,292.68,391.9Z" transform="translate(-131.71 -367.6)"/><path class="cls-2" d="M295.15,391.14c.7,0,1-.16,1-.63-.16-.21.16-.73-.35-.79s-1.05.17-1,.41C294.72,390.61,295,391.14,295.15,391.14Z" transform="translate(-131.71 -367.6)"/><path class="cls-2" d="M298.09,390.85c.6,0,.66-.09.67-.91,0-.62-.45-.39-.74-.41-.59,0-.59,0-.59.63S297.43,390.85,298.09,390.85Z" transform="translate(-131.71 -367.6)"/></svg>